<svg width="116" height="113" viewBox="0 0 116 113" fill="none" xmlns="http://www.w3.org/2000/svg">
<path fill-rule="evenodd" clip-rule="evenodd" d="M158.907 -87.9037C145.957 -81.0647 144.852 -62.7307 156.835 -53.5437C171.979 -41.9337 193.057 -57.2087 187.537 -75.7947C185.926 -81.2207 180.48 -87.3677 175.685 -89.1717C170.876 -90.9817 163.71 -90.4407 158.907 -87.9037ZM60.25 -481.294L58 -480.861V-444.43V-408H62.968H67.937L68.218 -419.75L68.5 -431.5L74.545 -425.371C77.869 -422 82.332 -416.713 84.461 -413.621L88.332 -408H93.773C98.23 -408 99.109 -408.275 98.631 -409.52C97.342 -412.879 89.562 -423.395 83.842 -429.509L77.775 -435.995L87.025 -446.027C92.112 -451.545 96.478 -455.856 96.726 -455.607C96.974 -455.359 98.908 -449.992 101.023 -443.681C103.138 -437.37 107.177 -427.098 109.999 -420.853C112.821 -414.609 115.339 -409.028 115.595 -408.451C115.851 -407.874 114.521 -405.624 112.64 -403.451C109.326 -399.622 109.033 -399.503 103.129 -399.61L97.038 -399.72L96.387 -396.25C95.559 -391.834 96.765 -391.035 104.3 -391.015C116.41 -390.983 121.412 -396.84 130.163 -421.3C133.289 -430.039 141 -455.917 141 -457.67C141 -457.852 138.633 -458 135.741 -458H130.482L128.657 -449.88C125.709 -436.763 120.763 -420.836 119.908 -421.701C118.611 -423.011 112.474 -439.854 109.898 -449.174L107.501 -457.848L102 -458.174C98.975 -458.353 94.025 -458.335 91 -458.134L85.5 -457.769L77 -448.193L68.5 -438.618L68.23 -460.309L67.961 -482L65.23 -481.864C63.729 -481.789 61.488 -481.533 60.25 -481.294ZM152.065 -458.918C149.076 -458.393 146.517 -457.85 146.379 -457.712C146.241 -457.575 146.385 -455.549 146.699 -453.211L147.269 -448.96L150.884 -449.73C152.873 -450.153 156.902 -450.5 159.837 -450.5C164.445 -450.5 165.503 -450.117 167.587 -447.694C169.052 -445.991 169.998 -443.633 169.996 -441.694L169.992 -438.5H161.246C151.588 -438.5 147.525 -436.937 143.64 -431.725C140.85 -427.981 140.816 -419.712 143.571 -414.995C146.928 -409.247 151.115 -407.499 161.5 -407.508C166.45 -407.512 172.637 -407.877 175.25 -408.319L180 -409.123V-427.904C180 -445.55 179.862 -446.947 177.71 -451.015C176.323 -453.638 174.057 -456.052 171.96 -457.137C167.598 -459.396 159.11 -460.156 152.065 -458.918ZM193.25 -457.834L189 -456.882V-432.441V-408H194H199V-429V-450H205.944C211.841 -450 213.312 -449.636 215.694 -447.589L218.5 -445.177L218.812 -426.589L219.124 -408H224.121H229.119L228.809 -427.25C228.451 -449.552 227.658 -452.358 220.532 -456.534C216.816 -458.712 215.224 -458.987 206.912 -458.893C201.735 -458.834 195.587 -458.358 193.25 -457.834ZM114 -34.8427V-14.4547L117.75 -13.7937C134.045 -10.9247 145.915 0.81427 147.692 15.8183L148.279 20.7682H168.5H188.721L189.323 15.6913C191.036 1.22229 202.469 -10.8287 216.89 -13.3687L223 -14.4457V-34.8387V-55.2317H218.447C205.658 -55.2317 186.511 -47.5597 174.745 -37.7207L167.991 -32.0727L161.924 -37.5617C151.377 -47.1068 131.566 -55.2317 118.84 -55.2317H114V-34.8427ZM168.418 -430.393C169.649 -429.921 170 -428.256 170 -422.893V-416L163.75 -416.015C156.296 -416.032 152.99 -417.498 151.711 -421.354C150.956 -423.629 151.161 -424.738 152.722 -426.83C153.799 -428.272 155.765 -429.756 157.09 -430.127C160.257 -431.012 166.426 -431.158 168.418 -430.393Z" fill="white"/>
<path fill-rule="evenodd" clip-rule="evenodd" d="M51.309 1.46237C46.197 3.27337 40.532 9.31237 38.93 14.6574C35.07 27.5434 46.108 41.0324 59.241 39.4774C68.315 38.4024 74.718 32.1704 76.498 22.6824C78.074 14.2804 71.896 4.33537 63.276 1.39837C57.767 -0.479627 56.774 -0.473632 51.309 1.46237ZM137 10.7624L133.5 11.3194L133.237 47.0694L132.975 82.8194H137.456H141.937L142.218 71.1464L142.5 59.4734L148.878 65.8544C152.385 69.3634 156.837 74.6164 158.769 77.5274C162.21 82.7084 162.385 82.8194 167.142 82.8194C169.814 82.8194 172 82.5394 172 82.1964C172 80.8264 162.439 68.2924 156.778 62.2414L150.762 55.8104L160.381 45.4224C165.671 39.7094 170 34.7614 170 34.4274C170 34.0934 167.863 33.8574 165.25 33.9044C160.523 33.9884 160.456 34.0384 151.5 44.0754L142.5 54.1624L142.229 32.7704C142.081 21.0044 141.631 11.1144 141.229 10.7914C140.828 10.4694 138.925 10.4564 137 10.7624ZM225.199 33.7474C220.961 34.8264 220.874 34.9394 221.581 38.4754L222.176 41.4514L230.398 41.0204C237.934 40.6244 238.85 40.7864 241.372 42.9554C243.259 44.5794 244.299 46.6294 244.682 49.4844L245.24 53.6464L237.37 53.5674C223.824 53.4324 217.128 57.8984 216.292 67.6264C215.736 74.1034 218.245 78.6684 224 81.6534C228.147 83.8044 229.378 83.9484 239.709 83.4874C245.874 83.2124 251.387 82.6984 251.959 82.3444C252.62 81.9364 253 74.9454 253 63.2204C253 42.4204 252.14 39.0424 245.917 35.4074C242.251 33.2664 230.718 32.3424 225.199 33.7474ZM271.65 33.8104C268.982 34.2894 266.17 34.9244 265.4 35.2194C264.255 35.6584 264 40.0414 264 59.2884V82.8194H268H272V62.4364C272 39.1724 271.248 40.8604 281.615 40.8334C287.874 40.8164 291.481 43.2904 292.96 48.6144C293.526 50.6524 293.991 59.1824 293.994 67.5694L294 82.8194H298.612H303.223L302.854 65.0274C302.508 48.3874 302.322 46.9194 299.98 42.3694C296.759 36.1104 292.228 33.6484 283.171 33.2394C279.502 33.0734 274.317 33.3304 271.65 33.8104ZM172 34.9614C172 39.3064 181.387 64.6804 187.443 76.7064C190.831 83.4334 190.849 83.5384 189.096 86.4134C185.746 91.9074 180.362 94.3574 175.01 92.8224C172.224 92.0234 171.96 92.1824 171.157 95.1424C170.682 96.8894 170.455 98.6174 170.652 98.9824C171.42 100.402 178.992 100.899 183.137 99.8014C191.148 97.6794 195.439 91.9084 202.005 74.4274C205.579 64.9124 214 37.0094 214 34.6814C214 34.2074 212.068 33.8194 209.706 33.8194H205.412L202.55 45.5694C200.975 52.0324 198.46 60.9194 196.96 65.3194L194.233 73.3194L192.045 68.3194C189.002 61.3694 183.529 45.3654 182.041 39.0694L180.801 33.8194H176.4C173.768 33.8194 172 34.2784 172 34.9614ZM3 55.2744V74.7284L6.75 75.3584C17.636 77.1854 25.986 82.2014 31.36 90.1414C34.832 95.2714 38 104.03 38 108.501C38 112.972 38 110.819 38 110.819H57.5H77V108.001C77 103.392 79.738 95.5574 83.147 90.4114C88.425 82.4434 96.214 77.7654 108.25 75.3364L111 74.7814V55.3004V35.8194C111 35.8194 118.644 35.8194 106.16 35.8194C93.676 35.8194 74.938 43.6594 64.204 53.3734C60.894 56.3684 57.778 58.8194 57.28 58.8194C56.782 58.8194 55.052 57.4224 53.437 55.7144C43.451 45.1574 21.914 35.8194 7.553 35.8194H3V55.2744ZM242.75 60.8054C244.879 60.8184 245 61.2164 245 68.2124C245 76.5154 244.737 76.8194 237.567 76.8194C232.113 76.8194 227.23 75.1174 225.979 72.7804C224.366 69.7674 224.854 65.2614 227.003 63.3164C229.192 61.3354 235.332 59.7774 238.5 60.3994C239.6 60.6154 241.512 60.7984 242.75 60.8054Z" fill="url(#paint0_linear_2_2)"/>
<path fill-rule="evenodd" clip-rule="evenodd" d="M51.309 1.46237C46.197 3.27337 40.532 9.31237 38.93 14.6574C35.07 27.5434 46.108 41.0324 59.241 39.4774C68.315 38.4024 74.718 32.1704 76.498 22.6824C78.074 14.2804 71.896 4.33537 63.276 1.39837C57.767 -0.479627 56.774 -0.473632 51.309 1.46237ZM137 10.7624L133.5 11.3194L133.237 47.0694L132.975 82.8194H137.456H141.937L142.218 71.1464L142.5 59.4734L148.878 65.8544C152.385 69.3634 156.837 74.6164 158.769 77.5274C162.21 82.7084 162.385 82.8194 167.142 82.8194C169.814 82.8194 172 82.5394 172 82.1964C172 80.8264 162.439 68.2924 156.778 62.2414L150.762 55.8104L160.381 45.4224C165.671 39.7094 170 34.7614 170 34.4274C170 34.0934 167.863 33.8574 165.25 33.9044C160.523 33.9884 160.456 34.0384 151.5 44.0754L142.5 54.1624L142.229 32.7704C142.081 21.0044 141.631 11.1144 141.229 10.7914C140.828 10.4694 138.925 10.4564 137 10.7624ZM225.199 33.7474C220.961 34.8264 220.874 34.9394 221.581 38.4754L222.176 41.4514L230.398 41.0204C237.934 40.6244 238.85 40.7864 241.372 42.9554C243.259 44.5794 244.299 46.6294 244.682 49.4844L245.24 53.6464L237.37 53.5674C223.824 53.4324 217.128 57.8984 216.292 67.6264C215.736 74.1034 218.245 78.6684 224 81.6534C228.147 83.8044 229.378 83.9484 239.709 83.4874C245.874 83.2124 251.387 82.6984 251.959 82.3444C252.62 81.9364 253 74.9454 253 63.2204C253 42.4204 252.14 39.0424 245.917 35.4074C242.251 33.2664 230.718 32.3424 225.199 33.7474ZM271.65 33.8104C268.982 34.2894 266.17 34.9244 265.4 35.2194C264.255 35.6584 264 40.0414 264 59.2884V82.8194H268H272V62.4364C272 39.1724 271.248 40.8604 281.615 40.8334C287.874 40.8164 291.481 43.2904 292.96 48.6144C293.526 50.6524 293.991 59.1824 293.994 67.5694L294 82.8194H298.612H303.223L302.854 65.0274C302.508 48.3874 302.322 46.9194 299.98 42.3694C296.759 36.1104 292.228 33.6484 283.171 33.2394C279.502 33.0734 274.317 33.3304 271.65 33.8104ZM172 34.9614C172 39.3064 181.387 64.6804 187.443 76.7064C190.831 83.4334 190.849 83.5384 189.096 86.4134C185.746 91.9074 180.362 94.3574 175.01 92.8224C172.224 92.0234 171.96 92.1824 171.157 95.1424C170.682 96.8894 170.455 98.6174 170.652 98.9824C171.42 100.402 178.992 100.899 183.137 99.8014C191.148 97.6794 195.439 91.9084 202.005 74.4274C205.579 64.9124 214 37.0094 214 34.6814C214 34.2074 212.068 33.8194 209.706 33.8194H205.412L202.55 45.5694C200.975 52.0324 198.46 60.9194 196.96 65.3194L194.233 73.3194L192.045 68.3194C189.002 61.3694 183.529 45.3654 182.041 39.0694L180.801 33.8194H176.4C173.768 33.8194 172 34.2784 172 34.9614ZM3 55.2744V74.7284L6.75 75.3584C17.636 77.1854 25.986 82.2014 31.36 90.1414C34.832 95.2714 38 104.03 38 108.501C38 112.972 38 110.819 38 110.819H57.5H77V108.001C77 103.392 79.738 95.5574 83.147 90.4114C88.425 82.4434 96.214 77.7654 108.25 75.3364L111 74.7814V55.3004V35.8194C111 35.8194 118.644 35.8194 106.16 35.8194C93.676 35.8194 74.938 43.6594 64.204 53.3734C60.894 56.3684 57.778 58.8194 57.28 58.8194C56.782 58.8194 55.052 57.4224 53.437 55.7144C43.451 45.1574 21.914 35.8194 7.553 35.8194H3V55.2744ZM242.75 60.8054C244.879 60.8184 245 61.2164 245 68.2124C245 76.5154 244.737 76.8194 237.567 76.8194C232.113 76.8194 227.23 75.1174 225.979 72.7804C224.366 69.7674 224.854 65.2614 227.003 63.3164C229.192 61.3354 235.332 59.7774 238.5 60.3994C239.6 60.6154 241.512 60.7984 242.75 60.8054Z" fill="url(#paint1_linear_2_2)"/>
<defs>
<linearGradient id="paint0_linear_2_2" x1="153.111" y1="0" x2="153.111" y2="111.338" gradientUnits="userSpaceOnUse">
<stop stop-color="#581AA8"/>
<stop offset="0.994792" stop-color="#EE3774"/>
</linearGradient>
<linearGradient id="paint1_linear_2_2" x1="153.111" y1="0" x2="153.111" y2="111.338" gradientUnits="userSpaceOnUse">
<stop stop-color="#581AA8"/>
<stop offset="0.994792" stop-color="#EE3774"/>
</linearGradient>
</defs>
</svg>
