<svg width="1435" height="737" viewBox="0 0 1435 737" fill="none" xmlns="http://www.w3.org/2000/svg">
<path opacity="0.2" d="M460.5 665.949C169.997 681.05 35.5 618.181 0 596.504V506.186H1441V678.393C1204.5 819.692 896.057 638.625 663.5 653.907C523 663.139 530 662.337 460.5 665.949Z" fill="url(#paint0_linear_34_28)"/>
<path opacity="0.2" d="M1441 1.60565H1V594.096C424 565.194 398.5 745.028 815.5 683.21C1040.82 649.808 1227.5 740.211 1441 676.788V1.60565Z" fill="url(#paint1_linear_34_28)"/>
<path d="M1 0H1441V678.393C1117 553.954 1063 743.021 630 642.266C409.927 591.057 295 543.116 1 594.497V0Z" fill="url(#paint2_linear_34_28)"/>
<defs>
<linearGradient id="paint0_linear_34_28" x1="42.4997" y1="443.967" x2="1621.04" y2="976.333" gradientUnits="userSpaceOnUse">
<stop stop-color="#0470DC"/>
<stop offset="1" stop-color="#13F1FC"/>
</linearGradient>
<linearGradient id="paint1_linear_34_28" x1="82.5" y1="612.561" x2="1208.38" y2="-472.902" gradientUnits="userSpaceOnUse">
<stop stop-color="#0470DC"/>
<stop offset="1" stop-color="#13F1FC"/>
</linearGradient>
<linearGradient id="paint2_linear_34_28" x1="1.0001" y1="-50.5786" x2="1606.9" y2="1212.99" gradientUnits="userSpaceOnUse">
<stop stop-color="#15111E"/>
<stop offset="1"/>
</linearGradient>
</defs>
</svg>
