<svg width="301" height="112" viewBox="0 0 301 112" fill="none" xmlns="http://www.w3.org/2000/svg">
<path fill-rule="evenodd" clip-rule="evenodd" d="M48.309 1.46237C43.197 3.27337 37.532 9.31237 35.93 14.6574C32.07 27.5434 43.108 41.0324 56.241 39.4774C65.315 38.4024 71.718 32.1704 73.498 22.6824C75.074 14.2804 68.896 4.33537 60.276 1.39837C54.767 -0.479627 53.774 -0.473632 48.309 1.46237ZM134 10.7624L130.5 11.3194L130.237 47.0694L129.975 82.8194H134.456H138.937L139.218 71.1464L139.5 59.4734L145.878 65.8544C149.385 69.3634 153.837 74.6164 155.769 77.5274C159.21 82.7084 159.385 82.8194 164.142 82.8194C166.814 82.8194 169 82.5394 169 82.1964C169 80.8264 159.439 68.2924 153.778 62.2414L147.762 55.8104L157.381 45.4224C162.671 39.7094 167 34.7614 167 34.4274C167 34.0934 164.863 33.8574 162.25 33.9044C157.523 33.9884 157.456 34.0384 148.5 44.0754L139.5 54.1624L139.229 32.7704C139.081 21.0044 138.631 11.1144 138.229 10.7914C137.828 10.4694 135.925 10.4564 134 10.7624ZM222.199 33.7474C217.961 34.8264 217.874 34.9394 218.581 38.4754L219.176 41.4514L227.398 41.0204C234.934 40.6244 235.85 40.7864 238.372 42.9554C240.259 44.5794 241.299 46.6294 241.682 49.4844L242.24 53.6464L234.37 53.5674C220.824 53.4324 214.128 57.8984 213.292 67.6264C212.736 74.1034 215.245 78.6684 221 81.6534C225.147 83.8044 226.378 83.9484 236.709 83.4874C242.874 83.2124 248.387 82.6984 248.959 82.3444C249.62 81.9364 250 74.9454 250 63.2204C250 42.4204 249.14 39.0424 242.917 35.4074C239.251 33.2664 227.718 32.3424 222.199 33.7474ZM268.65 33.8104C265.982 34.2894 263.17 34.9244 262.4 35.2194C261.255 35.6584 261 40.0414 261 59.2884V82.8194H265H269V62.4364C269 39.1724 268.248 40.8604 278.615 40.8334C284.874 40.8164 288.481 43.2904 289.96 48.6144C290.526 50.6524 290.991 59.1824 290.994 67.5694L291 82.8194H295.612H300.223L299.854 65.0274C299.508 48.3874 299.322 46.9194 296.98 42.3694C293.759 36.1104 289.228 33.6484 280.171 33.2394C276.502 33.0734 271.317 33.3304 268.65 33.8104ZM169 34.9614C169 39.3064 178.387 64.6804 184.443 76.7064C187.831 83.4334 187.849 83.5384 186.096 86.4134C182.746 91.9074 177.362 94.3574 172.01 92.8224C169.224 92.0234 168.96 92.1824 168.157 95.1424C167.682 96.8894 167.455 98.6174 167.652 98.9824C168.42 100.402 175.992 100.899 180.137 99.8014C188.148 97.6794 192.439 91.9084 199.005 74.4274C202.579 64.9124 211 37.0094 211 34.6814C211 34.2074 209.068 33.8194 206.706 33.8194H202.412L199.55 45.5694C197.975 52.0324 195.46 60.9194 193.96 65.3194L191.233 73.3194L189.045 68.3194C186.002 61.3694 180.529 45.3654 179.041 39.0694L177.801 33.8194H173.4C170.768 33.8194 169 34.2784 169 34.9614ZM0 55.2744V74.7284L3.75 75.3584C14.636 77.1854 22.986 82.2014 28.36 90.1414C31.832 95.2714 35 104.03 35 108.501C35 112.972 35 110.819 35 110.819H54.5H74V108.001C74 103.392 76.738 95.5574 80.147 90.4114C85.425 82.4434 93.214 77.7654 105.25 75.3364L108 74.7814V55.3004V35.8194C108 35.8194 115.644 35.8194 103.16 35.8194C90.676 35.8194 71.938 43.6594 61.204 53.3734C57.894 56.3684 54.778 58.8194 54.28 58.8194C53.782 58.8194 52.052 57.4224 50.437 55.7144C40.451 45.1574 18.914 35.8194 4.553 35.8194H0V55.2744ZM239.75 60.8054C241.879 60.8184 242 61.2164 242 68.2124C242 76.5154 241.737 76.8194 234.567 76.8194C229.113 76.8194 224.23 75.1174 222.979 72.7804C221.366 69.7674 221.854 65.2614 224.003 63.3164C226.192 61.3354 232.332 59.7774 235.5 60.3994C236.6 60.6154 238.512 60.7984 239.75 60.8054Z" fill="url(#paint0_linear_2_5)"/>
<path fill-rule="evenodd" clip-rule="evenodd" d="M48.309 1.46237C43.197 3.27337 37.532 9.31237 35.93 14.6574C32.07 27.5434 43.108 41.0324 56.241 39.4774C65.315 38.4024 71.718 32.1704 73.498 22.6824C75.074 14.2804 68.896 4.33537 60.276 1.39837C54.767 -0.479627 53.774 -0.473632 48.309 1.46237ZM134 10.7624L130.5 11.3194L130.237 47.0694L129.975 82.8194H134.456H138.937L139.218 71.1464L139.5 59.4734L145.878 65.8544C149.385 69.3634 153.837 74.6164 155.769 77.5274C159.21 82.7084 159.385 82.8194 164.142 82.8194C166.814 82.8194 169 82.5394 169 82.1964C169 80.8264 159.439 68.2924 153.778 62.2414L147.762 55.8104L157.381 45.4224C162.671 39.7094 167 34.7614 167 34.4274C167 34.0934 164.863 33.8574 162.25 33.9044C157.523 33.9884 157.456 34.0384 148.5 44.0754L139.5 54.1624L139.229 32.7704C139.081 21.0044 138.631 11.1144 138.229 10.7914C137.828 10.4694 135.925 10.4564 134 10.7624ZM222.199 33.7474C217.961 34.8264 217.874 34.9394 218.581 38.4754L219.176 41.4514L227.398 41.0204C234.934 40.6244 235.85 40.7864 238.372 42.9554C240.259 44.5794 241.299 46.6294 241.682 49.4844L242.24 53.6464L234.37 53.5674C220.824 53.4324 214.128 57.8984 213.292 67.6264C212.736 74.1034 215.245 78.6684 221 81.6534C225.147 83.8044 226.378 83.9484 236.709 83.4874C242.874 83.2124 248.387 82.6984 248.959 82.3444C249.62 81.9364 250 74.9454 250 63.2204C250 42.4204 249.14 39.0424 242.917 35.4074C239.251 33.2664 227.718 32.3424 222.199 33.7474ZM268.65 33.8104C265.982 34.2894 263.17 34.9244 262.4 35.2194C261.255 35.6584 261 40.0414 261 59.2884V82.8194H265H269V62.4364C269 39.1724 268.248 40.8604 278.615 40.8334C284.874 40.8164 288.481 43.2904 289.96 48.6144C290.526 50.6524 290.991 59.1824 290.994 67.5694L291 82.8194H295.612H300.223L299.854 65.0274C299.508 48.3874 299.322 46.9194 296.98 42.3694C293.759 36.1104 289.228 33.6484 280.171 33.2394C276.502 33.0734 271.317 33.3304 268.65 33.8104ZM169 34.9614C169 39.3064 178.387 64.6804 184.443 76.7064C187.831 83.4334 187.849 83.5384 186.096 86.4134C182.746 91.9074 177.362 94.3574 172.01 92.8224C169.224 92.0234 168.96 92.1824 168.157 95.1424C167.682 96.8894 167.455 98.6174 167.652 98.9824C168.42 100.402 175.992 100.899 180.137 99.8014C188.148 97.6794 192.439 91.9084 199.005 74.4274C202.579 64.9124 211 37.0094 211 34.6814C211 34.2074 209.068 33.8194 206.706 33.8194H202.412L199.55 45.5694C197.975 52.0324 195.46 60.9194 193.96 65.3194L191.233 73.3194L189.045 68.3194C186.002 61.3694 180.529 45.3654 179.041 39.0694L177.801 33.8194H173.4C170.768 33.8194 169 34.2784 169 34.9614ZM0 55.2744V74.7284L3.75 75.3584C14.636 77.1854 22.986 82.2014 28.36 90.1414C31.832 95.2714 35 104.03 35 108.501C35 112.972 35 110.819 35 110.819H54.5H74V108.001C74 103.392 76.738 95.5574 80.147 90.4114C85.425 82.4434 93.214 77.7654 105.25 75.3364L108 74.7814V55.3004V35.8194C108 35.8194 115.644 35.8194 103.16 35.8194C90.676 35.8194 71.938 43.6594 61.204 53.3734C57.894 56.3684 54.778 58.8194 54.28 58.8194C53.782 58.8194 52.052 57.4224 50.437 55.7144C40.451 45.1574 18.914 35.8194 4.553 35.8194H0V55.2744ZM239.75 60.8054C241.879 60.8184 242 61.2164 242 68.2124C242 76.5154 241.737 76.8194 234.567 76.8194C229.113 76.8194 224.23 75.1174 222.979 72.7804C221.366 69.7674 221.854 65.2614 224.003 63.3164C226.192 61.3354 232.332 59.7774 235.5 60.3994C236.6 60.6154 238.512 60.7984 239.75 60.8054Z" fill="url(#paint1_linear_2_5)"/>
<defs>
<linearGradient id="paint0_linear_2_5" x1="150.111" y1="0" x2="150.111" y2="111.338" gradientUnits="userSpaceOnUse">
<stop stop-color="#581AA8"/>
<stop offset="0.994792" stop-color="#EE3774"/>
</linearGradient>
<linearGradient id="paint1_linear_2_5" x1="150.111" y1="0" x2="150.111" y2="111.338" gradientUnits="userSpaceOnUse">
<stop stop-color="#581AA8"/>
<stop offset="0.994792" stop-color="#EE3774"/>
</linearGradient>
</defs>
</svg>
