<svg width="172" height="91" viewBox="0 0 172 91" fill="none" xmlns="http://www.w3.org/2000/svg">
<path d="M0 1.13901L2.25 0.705994C3.488 0.466994 5.729 0.211002 7.23 0.136002L9.961 0L10.23 21.691L10.5 43.382L19 33.807L27.5 24.231L33 23.866C36.025 23.665 40.975 23.647 44 23.826L49.501 24.152L51.898 32.826C54.474 42.146 60.611 58.989 61.908 60.299C62.763 61.164 67.709 45.237 70.657 32.12L72.482 24H77.741C80.633 24 83 24.148 83 24.33C83 26.083 75.289 51.961 72.163 60.7C63.412 85.16 58.41 91.017 46.3 90.985C38.765 90.965 37.559 90.166 38.387 85.75L39.038 82.28L45.129 82.39C51.033 82.497 51.326 82.378 54.64 78.549C56.521 76.376 57.851 74.126 57.595 73.549C57.339 72.972 54.821 67.391 51.999 61.147C49.177 54.902 45.138 44.63 43.023 38.319C40.908 32.008 38.974 26.641 38.726 26.393C38.478 26.144 34.112 30.455 29.025 35.973L19.775 46.005L25.842 52.491C31.562 58.605 39.342 69.121 40.631 72.48C41.109 73.725 40.23 74 35.773 74H30.332L26.461 68.379C24.332 65.287 19.869 60 16.545 56.629L10.5 50.5L10.218 62.25L9.937 74H4.968H0V37.57V1.13901Z" fill="white"/>
<path d="M131 25.118L135.25 24.166C137.587 23.642 143.735 23.166 148.912 23.107C157.224 23.013 158.816 23.288 162.532 25.466C169.658 29.642 170.451 32.448 170.809 54.75L171.119 74H166.121H161.124L160.812 55.411L160.5 36.823L157.694 34.411C155.312 32.364 153.841 32 147.944 32H141V53V74H136H131V49.559V25.118Z" fill="white"/>
<path fill-rule="evenodd" clip-rule="evenodd" d="M94.065 23.082C91.076 23.607 88.517 24.15 88.379 24.288C88.241 24.425 88.385 26.451 88.699 28.789L89.269 33.04L92.884 32.27C94.873 31.847 98.902 31.5 101.837 31.5C106.445 31.5 107.503 31.883 109.587 34.306C111.052 36.009 111.998 38.367 111.996 40.306L111.992 43.5H103.246C93.588 43.5 89.525 45.063 85.64 50.275C82.85 54.019 82.816 62.288 85.571 67.005C88.928 72.753 93.115 74.501 103.5 74.492C108.45 74.488 114.637 74.123 117.25 73.681L122 72.877V54.096C122 36.45 121.862 35.053 119.71 30.985C118.323 28.362 116.057 25.948 113.96 24.863C109.598 22.604 101.11 21.844 94.065 23.082ZM112 59.107C112 53.744 111.649 52.079 110.418 51.607C108.426 50.842 102.257 50.988 99.09 51.873C97.765 52.244 95.799 53.728 94.722 55.17C93.161 57.262 92.956 58.371 93.711 60.646C94.99 64.502 98.296 65.968 105.75 65.985L112 66V59.107Z" fill="white"/>
</svg>
