<svg width="407" height="290" viewBox="0 0 407 290" fill="none" xmlns="http://www.w3.org/2000/svg">
<g clip-path="url(#clip0_14_3)">
<path d="M94.8027 126.616C74.1562 106.298 65.4361 85.0998 70.2481 66.9287C76.4233 43.6099 103.857 27.487 145.514 22.6939L145.668 24.0315C104.59 28.7575 77.5755 44.5186 71.5499 67.2731C66.8669 84.9572 75.4604 105.692 95.7475 125.657L94.8027 126.616Z" fill="#F0F0F0"/>
<path d="M294.006 198.742C268.238 198.742 240.236 194.914 212.423 187.553C178.028 178.45 146.491 164.71 121.223 147.818L121.971 146.699C147.118 163.509 178.515 177.187 212.767 186.251C243.721 194.444 274.907 198.24 302.942 197.238L302.99 198.583C300.03 198.69 297.035 198.743 294.006 198.742Z" fill="#F0F0F0"/>
<path d="M353.121 190.277L352.689 189.002C375.735 181.212 390.15 168.664 394.374 152.712C399.744 132.434 388.078 108.903 361.525 86.4526C334.836 63.8883 296.351 45.1658 253.157 33.7343L253.501 32.4328C296.884 43.9146 335.557 62.7341 362.394 85.4249C389.367 108.229 401.186 132.248 395.676 153.057C391.331 169.466 376.615 182.336 353.121 190.277Z" fill="#F0F0F0"/>
<path d="M141.505 199.305C90.8724 176.855 51.8562 147.73 31.6441 117.293L32.7658 116.548C52.8382 146.775 91.6496 175.727 142.051 198.074L141.505 199.305Z" fill="#F0F0F0"/>
<path d="M319.525 238.197C314.303 238.197 308.991 238.08 303.59 237.847L303.648 236.502C343.953 238.247 379.515 233.425 406.496 222.555L407 223.804C383.464 233.285 353.465 238.197 319.525 238.197Z" fill="#F0F0F0"/>
<path d="M290.147 23.9011C281.779 21.1772 273.171 18.641 264.563 16.3628C215.027 3.25287 166.333 -1.40182 123.743 2.90451L123.608 1.56493C166.357 -2.75552 215.217 1.91032 264.907 15.0613C273.54 17.3461 282.172 19.8895 290.564 22.6213L290.147 23.9011Z" fill="#F0F0F0"/>
<path d="M63.1586 128.636C42.5122 108.317 33.7921 87.1191 38.604 68.948C44.7792 45.6292 72.2126 29.5062 113.87 24.7132L114.024 26.0508C72.9464 30.7768 45.9315 46.5379 39.9058 69.2924C35.2228 86.9764 43.8163 107.711 64.1034 127.677L63.1586 128.636Z" fill="#F0F0F0"/>
<path d="M262.362 200.761C236.594 200.761 208.592 196.933 180.779 189.572C146.384 180.469 114.847 166.729 89.5784 149.837L90.3267 148.718C115.474 165.529 146.871 179.206 181.123 188.271C212.077 196.463 243.263 200.259 271.298 199.257L271.346 200.602C268.386 200.709 265.391 200.762 262.362 200.761Z" fill="#F0F0F0"/>
<path d="M321.477 192.296L321.045 191.021C344.091 183.231 358.506 170.683 362.73 154.732C368.1 134.453 356.434 110.922 329.881 88.4718C303.192 65.9076 264.707 47.185 221.513 35.7536L221.857 34.4521C265.24 45.9339 303.913 64.7534 330.75 87.4442C357.723 110.249 369.542 134.267 364.032 155.076C359.687 171.485 344.971 184.355 321.477 192.296Z" fill="#F0F0F0"/>
<path d="M109.861 201.324C59.2284 178.875 20.2121 149.749 0 119.312L1.12171 118.568C21.1941 148.794 60.0056 177.747 110.407 200.094L109.861 201.324Z" fill="#F0F0F0"/>
<path d="M287.881 240.216C282.659 240.216 277.347 240.099 271.946 239.866L272.004 238.521C312.309 240.266 347.871 235.444 374.852 224.574L375.356 225.823C351.82 235.304 321.821 240.216 287.881 240.216Z" fill="#F0F0F0"/>
<path d="M258.503 25.9203C250.135 23.1964 241.527 20.6602 232.919 18.382C183.383 5.27212 134.689 0.617421 92.0993 4.92373L91.9639 3.58416C134.713 -0.736293 183.573 3.92954 233.263 17.0806C241.896 19.3653 250.528 21.9088 258.92 24.6405L258.503 25.9203Z" fill="#F0F0F0"/>
<path d="M22.9513 92.5797C32.6279 81.7337 48.0636 75.1233 62.0518 79.0804C49.1471 88.21 39.8886 101.609 35.9143 116.906C34.403 122.811 33.3371 129.536 28.4247 133.146C25.3682 135.393 21.3182 135.929 17.5593 135.418C13.8002 134.906 10.2459 133.444 6.73957 131.996L5.79608 132.078C8.50869 117.8 13.2748 103.426 22.9513 92.5797Z" fill="#F2F2F2"/>
<path d="M62.0091 79.3823C50.314 82.2132 39.8084 88.6559 31.9846 97.7955C30.2654 99.7331 28.8624 101.93 27.8273 104.304C26.8938 106.65 26.6056 109.202 26.9927 111.697C27.3069 114.03 27.8984 116.38 27.6398 118.749C27.4894 119.96 27.0847 121.125 26.4523 122.168C25.8199 123.211 24.974 124.109 23.9701 124.803C21.5137 126.596 18.5593 127.4 15.6428 128.086C12.4046 128.847 9.02903 129.586 6.38937 131.738C6.06954 131.999 5.68364 131.487 6.00299 131.227C10.5955 127.484 16.9782 127.964 22.0594 125.246C24.4304 123.977 26.4333 121.986 26.9203 119.255C27.3461 116.866 26.7381 114.442 26.3996 112.083C25.9864 109.655 26.1741 107.162 26.9463 104.824C27.8571 102.404 29.1731 100.157 30.8379 98.1795C34.515 93.6665 38.879 89.7596 43.77 86.6019C49.3321 82.967 55.4751 80.3102 61.9334 78.7462C62.3331 78.6496 62.4062 79.2864 62.009 79.3823H62.0091Z" fill="white"/>
<path d="M34.3305 94.7043C32.9749 93.1839 32.204 91.2312 32.1555 89.195C32.107 87.1588 32.7842 85.1716 34.0659 83.5884C34.3264 83.269 34.8352 83.6586 34.5744 83.9785C33.3781 85.4505 32.7475 87.3016 32.7965 89.1976C32.8455 91.0937 33.5709 92.9097 34.8416 94.318C35.1174 94.6244 34.6047 95.0089 34.3305 94.7043Z" fill="white"/>
<path d="M26.6775 110.535C30.8332 110.811 34.9403 109.511 38.1797 106.894C38.5004 106.634 38.8864 107.145 38.5661 107.405C35.1899 110.122 30.9132 111.466 26.5893 111.169C26.1772 111.141 26.2676 110.506 26.6775 110.535Z" fill="white"/>
<path d="M49.4761 83.804C49.878 84.5016 50.4469 85.0884 51.1318 85.5119C51.8166 85.9353 52.5959 86.1821 53.3998 86.23C53.812 86.2533 53.7211 86.8876 53.3116 86.8644C52.4237 86.8073 51.5634 86.5338 50.8057 86.0676C50.048 85.6015 49.416 84.957 48.965 84.1903C48.9164 84.1216 48.8958 84.037 48.9074 83.9537C48.919 83.8703 48.9619 83.7946 49.0273 83.7417C49.0953 83.6909 49.1805 83.669 49.2645 83.6806C49.3486 83.6923 49.4246 83.7367 49.4761 83.8041L49.4761 83.804Z" fill="white"/>
<path d="M81.9083 124.106C81.6505 124.098 81.3927 124.091 81.1315 124.088C77.6645 124.009 74.1968 124.211 70.7626 124.693C70.4965 124.726 70.2273 124.763 69.9627 124.804C61.7012 126.053 53.7436 128.825 46.4944 132.979C43.6112 134.634 40.8582 136.506 38.2593 138.579C34.6701 141.442 31.0064 144.832 26.8045 146.299C26.3678 146.457 25.9218 146.588 25.4689 146.691L5.96889 133.222C5.93993 133.17 5.90771 133.121 5.87853 133.068L5.07538 132.566C5.20194 132.45 5.33572 132.332 5.4623 132.215C5.53545 132.148 5.61295 132.083 5.68605 132.015C5.73619 131.971 5.78657 131.927 5.82928 131.884C5.84592 131.869 5.86277 131.855 5.87635 131.844C5.91909 131.802 5.96328 131.766 6.0029 131.728C6.74885 131.067 7.50074 130.41 8.25857 129.758C8.26165 129.753 8.26165 129.753 8.26907 129.752C13.996 124.723 20.2995 120.39 27.0474 116.846C27.2502 116.743 27.4559 116.635 27.6676 116.538C30.714 115.011 33.8802 113.734 37.1346 112.722C38.9184 112.173 40.7288 111.715 42.5589 111.35C47.2895 110.414 52.1378 110.229 56.9261 110.799C66.4713 111.938 75.5459 116.117 81.4619 123.534C81.6131 123.724 81.7602 123.911 81.9083 124.106Z" fill="#F2F2F2"/>
<path d="M81.6935 124.323C70.6507 119.544 58.3825 118.365 46.6313 120.953C44.0917 121.465 41.6487 122.375 39.3923 123.648C37.2343 124.958 35.4669 126.823 34.2736 129.048C33.1193 131.1 32.1762 133.332 30.5431 135.068C29.6939 135.944 28.6691 136.631 27.5358 137.083C26.4025 137.536 25.1864 137.744 23.9671 137.693C20.9259 137.646 18.0828 136.51 15.3412 135.302C12.2971 133.961 9.15651 132.52 5.75321 132.649C5.34084 132.664 5.34071 132.024 5.75243 132.008C11.6736 131.784 16.4803 136.009 22.1748 136.897C24.8319 137.311 27.63 136.927 29.6638 135.039C31.4424 133.388 32.4168 131.087 33.5676 128.999C34.6999 126.812 36.3507 124.935 38.3758 123.532C40.5601 122.149 42.964 121.147 45.4845 120.57C51.1384 119.179 56.9757 118.687 62.7826 119.109C69.4127 119.555 75.9177 121.131 82.0162 123.769C82.3936 123.933 82.0684 124.485 81.6935 124.323H81.6935Z" fill="white"/>
<path d="M50.3661 119.897C50.1993 117.867 50.7598 115.844 51.9474 114.189C53.135 112.534 54.8724 111.355 56.8493 110.862C57.2497 110.764 57.4213 111.381 57.0204 111.48C55.1787 111.935 53.5604 113.034 52.4576 114.577C51.3549 116.12 50.8403 118.007 51.0068 119.896C51.0425 120.307 50.4016 120.305 50.3661 119.897Z" fill="white"/>
<path d="M34.7218 127.93C37.8737 130.652 41.9359 132.086 46.0984 131.946C46.5108 131.932 46.511 132.573 46.0991 132.587C41.7673 132.724 37.5429 131.223 34.2692 128.384C33.9574 128.113 34.4116 127.661 34.7218 127.93V127.93Z" fill="white"/>
<path d="M69.0236 120.31C68.9244 121.109 69.0252 121.92 69.317 122.67C69.6089 123.42 70.0825 124.086 70.6954 124.608C71.0106 124.875 70.556 125.327 70.2429 125.062C69.5684 124.482 69.0462 123.746 68.7219 122.917C68.3977 122.089 68.2813 121.194 68.3829 120.31C68.3854 120.226 68.42 120.146 68.4794 120.087C68.5388 120.027 68.6187 119.993 68.7028 119.99C68.7877 119.99 68.8689 120.024 68.929 120.084C68.989 120.144 69.023 120.225 69.0236 120.31H69.0236Z" fill="white"/>
<path d="M402.112 181.491C396.645 168.024 384.33 156.612 369.825 155.639C378.91 168.573 383.125 184.303 381.725 200.046C381.163 206.115 379.906 212.807 383.319 217.858C385.442 221.001 389.076 222.867 392.789 223.648C396.501 224.429 400.34 224.247 404.129 224.061L404.99 224.455C407.236 210.096 407.579 194.957 402.112 181.491Z" fill="#F2F2F2"/>
<path d="M369.764 155.938C379.827 162.533 387.555 172.131 391.851 183.368C392.819 185.77 393.402 188.31 393.578 190.895C393.669 193.417 393.082 195.918 391.879 198.138C390.799 200.23 389.451 202.244 388.898 204.562C388.633 205.753 388.622 206.986 388.867 208.181C389.112 209.376 389.607 210.506 390.319 211.497C392.03 214.011 394.542 215.761 397.059 217.387C399.852 219.192 402.783 221.023 404.546 223.936C404.759 224.289 405.295 223.937 405.081 223.584C402.014 218.516 395.842 216.824 391.97 212.556C390.163 210.565 388.946 208.017 389.406 205.281C389.808 202.888 391.196 200.809 392.308 198.7C393.513 196.553 394.174 194.142 394.233 191.68C394.189 189.095 393.705 186.537 392.802 184.115C390.856 178.629 388.059 173.483 384.514 168.865C380.498 163.573 375.605 159.007 370.049 155.364C369.705 155.139 369.422 155.714 369.764 155.938V155.938Z" fill="white"/>
<path d="M390.681 179.668C392.469 178.692 393.851 177.112 394.581 175.21C395.312 173.309 395.342 171.21 394.667 169.288C394.529 168.9 393.919 169.096 394.057 169.484C394.689 171.273 394.66 173.228 393.977 174.997C393.293 176.767 392 178.233 390.329 179.133C389.966 179.329 390.32 179.863 390.681 179.668Z" fill="white"/>
<path d="M392.566 197.149C388.56 196.013 385.129 193.408 382.957 189.855C382.743 189.503 382.207 189.855 382.422 190.207C384.688 193.9 388.264 196.603 392.436 197.776C392.834 197.888 392.962 197.26 392.566 197.149V197.149Z" fill="white"/>
<path d="M380.081 164.313C379.468 164.835 378.735 165.197 377.947 165.365C377.16 165.534 376.343 165.505 375.57 165.28C375.174 165.163 375.046 165.791 375.44 165.907C376.295 166.151 377.197 166.183 378.068 165.998C378.938 165.814 379.75 165.419 380.433 164.849C380.501 164.8 380.549 164.728 380.566 164.645C380.583 164.563 380.569 164.477 380.525 164.405C380.478 164.335 380.405 164.285 380.322 164.268C380.239 164.251 380.152 164.267 380.081 164.313H380.081Z" fill="white"/>
<path d="M335.986 191.373C336.231 191.453 336.477 191.533 336.724 191.617C340.016 192.708 343.214 194.063 346.286 195.671C346.525 195.792 346.766 195.917 347.002 196.045C354.363 199.997 360.926 205.281 366.357 211.629C368.516 214.157 370.479 216.845 372.23 219.671C374.648 223.573 376.958 227.997 380.423 230.791C380.781 231.086 381.157 231.359 381.549 231.608L404.443 225.475C404.488 225.435 404.534 225.4 404.58 225.36L405.505 225.157C405.425 225.005 405.339 224.849 405.258 224.697C405.212 224.608 405.161 224.521 405.115 224.433C405.083 224.375 405.05 224.316 405.024 224.262C405.013 224.242 405.003 224.223 404.993 224.208C404.967 224.154 404.938 224.106 404.913 224.056C404.433 223.183 403.945 222.312 403.451 221.442C403.45 221.437 403.45 221.437 403.443 221.433C399.74 214.773 395.26 208.574 390.096 202.969C389.94 202.804 389.782 202.633 389.615 202.471C387.26 200.008 384.707 197.742 381.982 195.695C380.487 194.579 378.936 193.54 377.335 192.581C373.194 190.11 368.69 188.306 363.989 187.235C354.616 185.1 344.664 185.987 336.599 190.985C336.392 191.113 336.191 191.24 335.986 191.373Z" fill="#F2F2F2"/>
<path d="M336.115 191.65C348.122 190.859 360.073 193.871 370.271 200.257C372.49 201.593 374.486 203.27 376.183 205.227C377.774 207.187 378.812 209.537 379.188 212.033C379.585 214.354 379.723 216.773 380.678 218.957C381.183 220.067 381.917 221.058 382.832 221.865C383.748 222.672 384.823 223.276 385.988 223.638C388.868 224.616 391.928 224.501 394.916 224.285C398.234 224.044 401.677 223.742 404.839 225.007C405.222 225.16 405.437 224.557 405.055 224.404C399.554 222.203 393.606 224.568 387.944 223.49C385.303 222.988 382.796 221.686 381.515 219.225C380.395 217.072 380.251 214.577 379.869 212.224C379.538 209.784 378.615 207.461 377.179 205.46C375.587 203.423 373.66 201.672 371.48 200.281C366.622 197.072 361.29 194.647 355.679 193.093C349.285 191.285 342.628 190.584 335.998 191.02C335.587 191.047 335.708 191.677 336.115 191.65V191.65Z" fill="white"/>
<path d="M367.108 198.007C367.948 196.152 368.1 194.058 367.538 192.1C366.976 190.142 365.736 188.448 364.04 187.32C363.696 187.093 363.326 187.617 363.671 187.844C365.252 188.892 366.407 190.47 366.927 192.294C367.447 194.118 367.297 196.068 366.505 197.791C366.333 198.166 366.938 198.38 367.108 198.007L367.108 198.007Z" fill="white"/>
<path d="M379.142 210.83C375.258 212.334 370.95 212.32 367.077 210.79C366.693 210.638 366.477 211.241 366.861 211.393C370.894 212.977 375.378 212.983 379.415 211.409C379.8 211.259 379.524 210.681 379.142 210.83V210.83Z" fill="white"/>
<path d="M349.397 192.127C349.222 192.913 348.855 193.643 348.327 194.251C347.8 194.86 347.13 195.328 346.377 195.614C345.991 195.759 346.267 196.337 346.651 196.193C347.481 195.873 348.221 195.356 348.805 194.684C349.389 194.013 349.799 193.209 350 192.343C350.026 192.263 350.021 192.176 349.985 192.1C349.949 192.024 349.885 191.965 349.807 191.934C349.727 191.905 349.639 191.91 349.562 191.946C349.486 191.982 349.426 192.047 349.397 192.127V192.127Z" fill="white"/>
<path d="M114.271 77.9867C117.246 77.9867 119.658 75.5759 119.658 72.6021C119.658 69.6282 117.246 67.2175 114.271 67.2175C111.297 67.2175 108.885 69.6282 108.885 72.6021C108.885 75.5759 111.297 77.9867 114.271 77.9867Z" fill="#FD6584"/>
<path d="M320.441 131.112C320.918 128.176 318.924 125.41 315.987 124.934C313.051 124.458 310.284 126.451 309.808 129.386C309.331 132.322 311.325 135.088 314.262 135.564C317.198 136.04 319.965 134.047 320.441 131.112Z" fill="#E6E6E6"/>
<path d="M114.052 17.3911C117.027 17.3911 119.439 14.9803 119.439 12.0064C119.439 9.03259 117.027 6.62181 114.052 6.62181C111.078 6.62181 108.666 9.03259 108.666 12.0064C108.666 14.9803 111.078 17.3911 114.052 17.3911Z" fill="#E6E6E6"/>
<path d="M274.767 75.3695H273.229V33.2655C273.229 26.8025 270.661 20.6043 266.09 16.0343C261.518 11.4643 255.318 8.89684 248.853 8.89682H159.624C156.423 8.89681 153.253 9.52712 150.296 10.7517C147.338 11.9764 144.651 13.7714 142.387 16.0342C140.124 18.297 138.328 20.9834 137.103 23.9399C135.878 26.8965 135.248 30.0653 135.248 33.2654V33.2654V264.251C135.248 270.714 137.816 276.913 142.387 281.483C146.959 286.053 153.159 288.62 159.624 288.62H248.853C255.318 288.62 261.518 286.053 266.09 281.483C270.661 276.913 273.229 270.715 273.229 264.252V105.34H274.767V75.3695Z" fill="#3F3D56"/>
<path d="M268.039 33.4345V264.082C268.04 266.472 267.569 268.838 266.655 271.045C265.74 273.253 264.4 275.259 262.71 276.948C261.021 278.638 259.014 279.979 256.806 280.893C254.598 281.808 252.232 282.279 249.842 282.279H160.176C155.349 282.279 150.719 280.363 147.306 276.95C143.892 273.538 141.974 268.91 141.974 264.084V33.4345C141.974 31.045 142.445 28.6789 143.359 26.4712C144.274 24.2635 145.614 22.2575 147.304 20.5678C148.994 18.8781 151.001 17.5376 153.209 16.6231C155.417 15.7085 157.784 15.2377 160.174 15.2376H171.058C170.522 16.5503 170.317 17.9746 170.462 19.385C170.606 20.7954 171.095 22.1486 171.886 23.3254C172.677 24.5022 173.746 25.4665 174.997 26.1333C176.249 26.8001 177.645 27.1489 179.063 27.149H230.184C231.602 27.148 232.998 26.7985 234.249 26.1315C235.5 25.4645 236.568 24.5003 237.359 23.3237C238.149 22.1472 238.639 20.7944 238.784 19.3844C238.929 17.9744 238.725 16.5503 238.19 15.2376H249.837C252.227 15.2375 254.594 15.708 256.802 16.6224C259.011 17.5367 261.017 18.8769 262.708 20.5665C264.398 22.256 265.739 24.2619 266.653 26.4694C267.568 28.677 268.039 31.0431 268.039 33.4326V33.4326L268.039 33.4345Z" fill="#F2F2F2"/>
<path d="M176.583 37.2547H148.768V38.4993H176.583V37.2547Z" fill="white"/>
<path d="M218.914 37.2547H191.099V38.4993H218.914V37.2547Z" fill="white"/>
<path d="M248.612 186.286H157.942C157.637 186.286 157.334 186.226 157.052 186.109C156.77 185.992 156.513 185.821 156.297 185.605C156.081 185.389 155.91 185.133 155.793 184.851C155.676 184.569 155.616 184.266 155.616 183.961C155.616 183.655 155.676 183.353 155.793 183.071C155.91 182.789 156.081 182.532 156.297 182.316C156.513 182.1 156.77 181.929 157.052 181.812C157.334 181.695 157.637 181.635 157.942 181.635H248.612C248.918 181.635 249.22 181.695 249.503 181.812C249.785 181.929 250.041 182.1 250.257 182.316C250.473 182.532 250.645 182.789 250.762 183.071C250.879 183.353 250.939 183.655 250.939 183.961C250.939 184.266 250.879 184.569 250.762 184.851C250.645 185.133 250.473 185.389 250.257 185.605C250.041 185.821 249.785 185.992 249.503 186.109C249.22 186.226 248.918 186.286 248.612 186.286V186.286Z" fill="#CCCCCC"/>
<path d="M248.612 202.467H157.942C157.325 202.467 156.734 202.222 156.297 201.786C155.861 201.35 155.616 200.758 155.616 200.141C155.616 199.524 155.861 198.933 156.297 198.497C156.734 198.061 157.325 197.816 157.942 197.816H248.612C249.229 197.816 249.821 198.061 250.257 198.497C250.694 198.933 250.939 199.524 250.939 200.141C250.939 200.758 250.694 201.35 250.257 201.786C249.821 202.222 249.229 202.467 248.612 202.467V202.467Z" fill="#CCCCCC"/>
<path d="M248.612 218.648H157.942C157.325 218.648 156.734 218.402 156.297 217.966C155.861 217.53 155.616 216.939 155.616 216.322C155.616 215.705 155.861 215.113 156.297 214.677C156.734 214.241 157.325 213.996 157.942 213.996H248.612C249.229 213.996 249.821 214.241 250.257 214.677C250.694 215.113 250.939 215.705 250.939 216.322C250.939 216.939 250.694 217.53 250.257 217.966C249.821 218.402 249.229 218.648 248.612 218.648V218.648Z" fill="#CCCCCC"/>
<path d="M261.245 37.2547H233.43V38.4993H261.245V37.2547Z" fill="white"/>
<path d="M176.583 260.671H148.768V261.916H176.583V260.671Z" fill="white"/>
<path d="M218.914 260.671H191.099V261.916H218.914V260.671Z" fill="white"/>
<path d="M261.245 260.671H233.43V261.916H261.245V260.671Z" fill="white"/>
<path d="M205.007 154.427C228.292 154.427 247.169 135.556 247.169 112.277C247.169 88.9987 228.292 70.1277 205.007 70.1277C181.721 70.1277 162.844 88.9987 162.844 112.277C162.844 135.556 181.721 154.427 205.007 154.427Z" fill="#D1D3D4"/>
<path d="M205.007 152.598C226.25 152.598 243.471 135.382 243.471 114.145C243.471 92.9081 226.25 75.692 205.007 75.692C183.763 75.692 166.542 92.9081 166.542 114.145C166.542 135.382 183.763 152.598 205.007 152.598Z" fill="#CA3081"/>
<path d="M201.649 129.216C201.566 129.216 201.482 129.214 201.397 129.21C200.66 129.175 199.938 128.98 199.283 128.639C198.628 128.299 198.054 127.821 197.601 127.238L191.538 119.446C190.705 118.373 190.331 117.013 190.5 115.664C190.668 114.315 191.365 113.089 192.437 112.253L192.654 112.084C193.728 111.251 195.089 110.877 196.438 111.046C197.787 111.214 199.015 111.91 199.851 112.982C200.123 113.332 200.468 113.619 200.861 113.823C201.255 114.028 201.688 114.145 202.131 114.166C202.574 114.192 203.018 114.12 203.43 113.954C203.843 113.789 204.213 113.535 204.516 113.21L216.825 100.22C217.761 99.2348 219.049 98.6608 220.408 98.624C221.767 98.5873 223.085 99.0907 224.073 100.024L224.273 100.213C225.259 101.149 225.834 102.437 225.871 103.796C225.908 105.155 225.404 106.472 224.47 107.46L205.369 127.616C204.891 128.122 204.314 128.524 203.674 128.8C203.034 129.075 202.345 129.217 201.649 129.216V129.216Z" fill="white"/>
<path d="M137.641 53.2881H132.661V80.0483H137.641V53.2881Z" fill="#3F3D56"/>
<path d="M137.641 83.1599H132.661V98.7182H137.641V83.1599Z" fill="#3F3D56"/>
<path d="M137.641 101.83H132.661V117.388H137.641V101.83Z" fill="#3F3D56"/>
<path d="M180.594 21.5493C181.97 21.5493 183.085 20.4348 183.085 19.06C183.085 17.6852 181.97 16.5707 180.594 16.5707C179.219 16.5707 178.104 17.6852 178.104 19.06C178.104 20.4348 179.219 21.5493 180.594 21.5493Z" fill="white"/>
<path opacity="0.16" d="M205.007 147.271C195.275 147.27 185.906 143.581 178.788 136.947C171.67 130.314 167.331 121.229 166.647 111.525C166.585 112.42 166.542 113.321 166.542 114.232C166.542 124.43 170.595 134.211 177.808 141.422C185.022 148.634 194.805 152.685 205.007 152.685C215.208 152.685 224.992 148.634 232.205 141.422C239.419 134.211 243.471 124.43 243.471 114.232C243.471 113.321 243.428 112.42 243.366 111.525C242.682 121.229 238.344 130.314 231.226 136.947C224.107 143.581 214.738 147.27 205.007 147.271V147.271Z" fill="#231F20"/>
<path d="M259.235 145.174L289.738 146.419L293.473 125.881L267.328 117.792L259.235 145.174Z" fill="#FFB8B8"/>
<path d="M270.764 100.693L271.059 90.9909L256.276 87.2857L229.66 79.5229C229.307 78.4547 228.639 77.5185 227.743 76.8382C226.847 76.158 225.765 75.7657 224.641 75.7133C223.517 75.6609 222.404 75.9508 221.449 76.5447C220.493 77.1387 219.74 78.0086 219.29 79.0394C218.84 80.0703 218.713 81.2134 218.927 82.3178C219.141 83.4221 219.685 84.4355 220.488 85.2239C221.29 86.0123 222.313 86.5386 223.421 86.7331C224.53 86.9276 225.671 86.7812 226.694 86.3133L252.57 96.9467L270.764 100.693Z" fill="#FFB8B8"/>
<path d="M261.238 100.625L269.554 88.7672L269.762 88.7949C269.892 88.8121 282.934 90.5564 291.484 93.1017C292.445 93.3562 293.339 93.8172 294.103 94.4526C294.868 95.0879 295.484 95.8823 295.91 96.7804C296.521 98.0353 296.752 99.4413 296.575 100.826C296.398 102.21 295.82 103.513 294.913 104.574C293.99 105.72 292.755 106.577 291.358 107.041C289.96 107.506 288.459 107.558 287.033 107.191L261.238 100.625Z" fill="#6C63FF"/>
<path d="M266.506 280.401L258.046 280.4L254.022 247.781L266.507 247.781L266.506 280.401Z" fill="#FFB8B8"/>
<path d="M332.374 276.74L324.009 278.004L315.152 246.352L326.118 244.487L332.374 276.74Z" fill="#FFB8B8"/>
<path d="M290.983 140.195L261.725 135.217L260.685 137.361C255.085 148.914 251.779 161.442 250.949 174.253C250.242 185.067 249.826 196.489 249.813 208.463C249.792 227.014 250.739 244.227 252.236 259.89L268.293 259.79C267.83 243.16 268.461 226.518 270.184 209.971C271.413 198.172 273.122 187.15 275.098 176.98C278.763 191.91 283.937 206.43 290.539 220.314C296.151 232.178 307.693 245.891 313.305 257.755C319.055 257.065 324.805 256.375 330.555 255.685C326.024 243.705 317.94 226.211 313.408 214.231C306.929 197.101 304.002 185.487 297.523 168.358C297.893 165.138 297.965 161.89 297.739 158.657C297.437 153.268 296.315 146.801 293.038 142.49L290.983 140.195Z" fill="#2F2E41"/>
<path d="M295.503 131.266C296.965 133.997 293.494 139.653 290.983 140.195L262.05 130.845L276.619 88.6427L283.948 89.9745L295.671 91.9489L299.829 95.7274C300.876 96.6799 301.624 97.9159 301.982 99.2852C302.34 100.655 302.292 102.098 301.845 103.441L295.503 131.266Z" fill="#6C63FF"/>
<path d="M275.586 114.957L267.401 109.735L256.647 120.532L236.348 139.411C235.249 139.167 234.103 139.261 233.059 139.682C232.016 140.104 231.125 140.831 230.505 141.77C229.884 142.708 229.563 143.812 229.584 144.937C229.605 146.062 229.967 147.153 230.622 148.068C231.277 148.982 232.195 149.676 233.253 150.058C234.311 150.44 235.461 150.492 236.549 150.206C237.637 149.921 238.614 149.312 239.348 148.46C240.083 147.608 240.541 146.553 240.663 145.435L263.05 128.661L275.586 114.957Z" fill="#FFB8B8"/>
<path d="M273.93 120.772L268 107.559L268.13 107.395C268.212 107.291 276.389 96.9854 282.954 90.9473C283.665 90.2526 284.518 89.7212 285.456 89.3902C286.393 89.0592 287.391 88.9365 288.381 89.0308C289.772 89.1493 291.098 89.6709 292.197 90.5319C293.295 91.3928 294.119 92.5556 294.566 93.8776C295.079 95.2577 295.183 96.7561 294.866 98.1937C294.549 99.6313 293.825 100.947 292.78 101.984L273.93 120.772Z" fill="#6C63FF"/>
<path d="M289.093 85.8225C296.2 85.8225 301.961 80.0631 301.961 72.9584C301.961 65.8537 296.2 60.0943 289.093 60.0943C281.986 60.0943 276.225 65.8537 276.225 72.9584C276.225 80.0631 281.986 85.8225 289.093 85.8225Z" fill="#FFB8B8"/>
<path d="M299.485 91.599L299.436 91.5866L280.736 86.9109C280.088 86.7489 279.487 86.4373 278.981 86.0012C278.476 85.5651 278.079 85.0165 277.824 84.3996C277.568 83.7826 277.461 83.1144 277.51 82.4485C277.56 81.7826 277.765 81.1376 278.109 80.5651L278.726 79.5377C279.33 78.5345 279.672 77.3962 279.722 76.2268C279.772 75.0574 279.528 73.894 279.013 72.8428C278.128 71.1261 276.604 69.825 274.769 69.2189L274.707 69.1891L274.315 68.9448C273.929 68.7626 273.585 68.5019 273.306 68.1792C273.026 67.8566 272.818 67.4791 272.693 67.0711C272.563 66.6483 272.524 66.203 272.577 65.764C272.63 65.325 272.775 64.902 273.002 64.5225C274.653 61.7621 277.123 59.5847 280.07 58.2935C283.792 56.6914 287.985 56.5655 291.797 57.9413C292.051 57.708 292.359 57.5415 292.693 57.4565C293.028 57.3716 293.378 57.371 293.712 57.4548C303.396 59.7994 304.194 66.2977 302.28 76.729L304.545 85.8595C304.705 86.5042 304.723 87.176 304.597 87.8282C304.471 88.4804 304.204 89.0974 303.816 89.6362C303.428 90.1751 302.926 90.623 302.347 90.9486C301.768 91.2743 301.125 91.47 300.463 91.5221L299.485 91.599ZM291.694 58.044L291.693 58.0452L291.694 58.044ZM291.927 57.9869L291.929 57.9875L291.927 57.9869Z" fill="#2F2E41"/>
<path d="M268.567 288.857H263.739L262.877 284.3L260.67 288.857H247.865C247.252 288.857 246.654 288.661 246.159 288.297C245.665 287.933 245.3 287.421 245.117 286.836C244.935 286.25 244.944 285.621 245.144 285.041C245.344 284.461 245.725 283.96 246.23 283.611L256.455 276.551V271.944L267.211 272.586L268.567 288.857Z" fill="#2F2E41"/>
<path d="M333.72 288.857H328.892L328.03 284.3L325.823 288.857H313.018C312.405 288.857 311.807 288.661 311.312 288.297C310.818 287.933 310.453 287.421 310.27 286.836C310.088 286.25 310.097 285.621 310.297 285.041C310.497 284.461 310.878 283.96 311.383 283.611L321.608 276.551V271.944L332.364 272.586L333.72 288.857Z" fill="#2F2E41"/>
</g>
<defs>
<clipPath id="clip0_14_3">
<rect width="407" height="290" fill="white"/>
</clipPath>
</defs>
</svg>
